# xmcd
#
# Track frame offsets:
#	150
#	17985
#	33462
#	50867
#	71587
#	85280
#	99732
#	113677
#	132272
#	153677
#	170117
#	190700
#	204455
#	225247
#	246042
#	261977
#	279622
#
# Disc length: 3891 seconds
#
# Revision: 1
# Processed by: cddbd v1.4PL0 Copyright (c) Steve Scherf et al.
# Submitted via: audiograbber 1.81.02
#
DISCID=f60f3111
DTITLE=LoneStarMusic.com - Lone Star Sampler, Volume One
DYEAR=1900
DGENRE=Folk
TTITLE0=Dragonfly - Matt Powell
TTITLE1=Blood Is Thicker Than Water - Shave
TTITLE2=Cloud Nine - The Groobees
TTITLE3=Errol's Song - Adam Carroll
TTITLE4=Beauty Way - Eliza Gilkyson
TTITLE5=Outlaw's Lament - Nathan Hamilton
TTITLE6=Jimmie and Annie - Cross Canadian Ragweed
TTITLE7=Went For A Ride - Radney Foster
TTITLE8=Black Limousine - Mark Jungers
TTITLE9=Walk On Me - Terri Hendrix
TTITLE10=Don't Bend Just Break - Beaver Nelson
TTITLE11=Blue Eyes - Max Stalling
TTITLE12=When Rita Leaves - Delbert McClinton
TTITLE13=Open Up Your Window - Brian Rung
TTITLE14=Wichita Falls - Houston Marchman
TTITLE15=Texas Bound Again - Harris and Ryden
TTITLE16=I Gave Her A Ring - Steve Fromholz
EXTD=
EXTT0=
EXTT1=
EXTT2=
EXTT3=
EXTT4=
EXTT5=
EXTT6=
EXTT7=
EXTT8=
EXTT9=
EXTT10=
EXTT11=
EXTT12=
EXTT13=
EXTT14=
EXTT15=
EXTT16=
PLAYORDER=
